<svg width="50px" height="50px" viewBox="0 0 50 50" fill="none" xmlns="http://www.w3.org/2000/svg">

    <g id="html">
        <path d="M7.90451 6.92144C8.41341 6.45495 8.44779 5.66424 7.9813 5.15534C7.51481 4.64645 6.7241 4.61207 6.2152 5.07856L7.90451 6.92144ZM1.46194 11.1314L2.3066 12.0529L2.3066 12.0529L1.46194 11.1314ZM1.46194 11.8686L2.3066 10.9471L2.3066 10.9471L1.46194 11.8686ZM6.2152 17.9214C6.7241 18.3879 7.51481 18.3536 7.9813 17.8447C8.44779 17.3358 8.41341 16.545 7.90451 16.0786L6.2152 17.9214ZM6.2152 5.07856L0.617287 10.21L2.3066 12.0529L7.90451 6.92144L6.2152 5.07856ZM0.617287 12.79L6.2152 17.9214L7.90451 16.0786L2.3066 10.9471L0.617287 12.79ZM0.617287 10.21C-0.139356 10.9036 -0.139356 12.0964 0.617287 12.79L2.3066 10.9471C2.63087 11.2444 2.63087 11.7556 2.3066 12.0529L0.617287 10.21Z" fill="#000000"/>
        <path d="M16.0557 16.0786C15.5468 16.545 15.5125 17.3358 15.9789 17.8447C16.4454 18.3536 17.2361 18.3879 17.745 17.9214L16.0557 16.0786ZM22.4983 11.8686L21.6537 10.9471L21.6537 10.9471L22.4983 11.8686ZM22.4983 11.1314L21.6537 12.0529L21.6537 12.0529L22.4983 11.1314ZM17.745 5.07856C17.2361 4.61207 16.4454 4.64645 15.979 5.15534C15.5125 5.66424 15.5468 6.45495 16.0557 6.92144L17.745 5.07856ZM17.745 17.9214L23.343 12.79L21.6537 10.9471L16.0557 16.0786L17.745 17.9214ZM23.343 10.21L17.745 5.07856L16.0557 6.92144L21.6537 12.0529L23.343 10.21ZM23.343 12.79C24.0996 12.0964 24.0996 10.9036 23.343 10.21L21.6537 12.0529C21.3294 11.7556 21.3294 11.2444 21.6537 10.9471L23.343 12.79Z" fill="#000000"/>
        <path d="M15.2127 3.80317C15.3801 3.13343 14.9729 2.45476 14.3032 2.28732C13.6334 2.11989 12.9548 2.52709 12.7873 3.19683L15.2127 3.80317ZM8.78732 19.1968C8.61989 19.8666 9.02709 20.5452 9.69683 20.7127C10.3666 20.8801 11.0452 20.4729 11.2127 19.8032L8.78732 19.1968ZM12.7873 3.19683L8.78732 19.1968L11.2127 19.8032L15.2127 3.80317L12.7873 3.19683Z" fill="#000000"/>
    </g>

    <g id="css">
        <path d="M8 5C7.44772 5 7 5.44772 7 6C7 6.55228 7.44772 7 8 7H12.2344L8.50386 9.13176C8.11017 9.35672 7.91712 9.81842 8.0335 10.2567C8.14988 10.6949 8.54657 11 9 11H13.8C13.9105 11 14 11.0895 14 11.2V13.5029C14 13.556 13.9789 13.6069 13.9414 13.6444L12.1414 15.4444C12.0633 15.5225 11.9367 15.5225 11.8586 15.4444L9.70711 13.2929C9.31658 12.9024 8.68342 12.9024 8.2929 13.2929C7.90237 13.6834 7.90237 14.3166 8.2929 14.7071L11.2929 17.7071C11.6834 18.0976 12.3166 18.0976 12.7071 17.7071L15.7071 14.7071C15.8946 14.5196 16 14.2652 16 14V10C16 9.44772 15.5523 9 15 9H12.7656L16.4961 6.86824C16.8898 6.64328 17.0829 6.18158 16.9665 5.74333C16.8501 5.30509 16.4534 5 16 5H8Z" fill="#0F0F0F"/>
        <path fill-rule="evenodd" clip-rule="evenodd" d="M4.30602 1C2.48038 1 1.07799 2.61696 1.33617 4.42426L2.90519 15.4074C3.00668 16.1178 3.35946 16.7683 3.89953 17.2409L10.0245 22.6002C11.1556 23.5899 12.8444 23.5899 13.9755 22.6002L20.1005 17.2409C20.6405 16.7683 20.9933 16.1178 21.0948 15.4074L22.6638 4.42426C22.922 2.61696 21.5196 1 19.694 1H4.30602ZM3.31607 4.14142C3.23001 3.53899 3.69747 3 4.30602 3H19.694C20.3025 3 20.77 3.53899 20.6839 4.14142L19.1149 15.1245C19.0811 15.3613 18.9635 15.5782 18.7835 15.7357L12.6585 21.095C12.2815 21.4249 11.7185 21.4249 11.3415 21.095L5.21653 15.7357C5.03651 15.5782 4.91892 15.3613 4.88509 15.1245L3.31607 4.14142Z" fill="#0F0F0F"/>
    </g>

    <g id="english">
        <path fill-rule="evenodd" clip-rule="evenodd" d="M12 3C7.85113 3 4 5.73396 4 10C4 11.5704 4.38842 12.7289 5.08252 13.6554C5.79003 14.5998 6.87746 15.3863 8.41627 16.0908L9.2326 16.4645L8.94868 17.3162C8.54129 18.5384 7.84997 19.6611 7.15156 20.5844C9.56467 19.8263 12.7167 18.6537 14.9453 17.1679C17.1551 15.6948 18.3969 14.5353 19.0991 13.455C19.7758 12.4139 20 11.371 20 10C20 5.73396 16.1489 3 12 3ZM2 10C2 4.26604 7.14887 1 12 1C16.8511 1 22 4.26604 22 10C22 11.629 21.7242 13.0861 20.7759 14.545C19.8531 15.9647 18.3449 17.3052 16.0547 18.8321C13.0781 20.8164 8.76589 22.2232 6.29772 22.9281C5.48665 23.1597 4.84055 22.6838 4.56243 22.1881C4.28848 21.6998 4.22087 20.9454 4.74413 20.3614C5.44439 19.5798 6.21203 18.5732 6.72616 17.4871C5.40034 16.7841 4.29326 15.9376 3.48189 14.8545C2.48785 13.5277 2 11.9296 2 10Z" fill="#0F0F0F"/>
        <path d="M16.463 8.73408C16.8535 8.34356 16.8535 7.71039 16.463 7.31987C16.0725 6.92935 15.4393 6.92935 15.0488 7.31987L10.7625 11.6062L8.97804 9.82176C8.58752 9.43124 7.95435 9.43124 7.56383 9.82176C7.1733 10.2123 7.1733 10.8455 7.56383 11.236L10.0345 13.7067C10.3629 14.035 10.8628 14.0873 11.2457 13.8635C11.3507 13.8153 11.4491 13.748 11.5356 13.6615L16.463 8.73408Z" fill="#0F0F0F"/>
    </g>

    <g id="react">
        <path fill-rule="nonzero" clip-rule="nonzero" d="M4.84989 2.37195C4.59895 2.51683 4.33488 2.91636 4.30424 3.78785C4.28968 4.20181 3.9423 4.52559 3.52835 4.51103C3.11439 4.49647 2.79061 4.1491 2.80516 3.73514C2.84273 2.66673 3.1806 1.60366 4.09989 1.07291C5.02179 0.540653 6.11484 0.782356 7.06128 1.28727C7.42674 1.48224 7.56495 1.93656 7.36998 2.30201C7.17501 2.66747 6.72069 2.80568 6.35524 2.61072C5.5818 2.1981 5.10158 2.22663 4.84989 2.37195ZM8.87139 3.67284C9.19036 3.40858 9.66315 3.45293 9.92741 3.7719C10.4818 4.44103 11.0136 5.20405 11.4963 6.04018C12.5366 7.84191 13.178 9.68785 13.3509 11.2362C13.4372 12.0091 13.4108 12.7446 13.2303 13.3754C13.0484 14.011 12.6941 14.5863 12.0999 14.9293C11.381 15.3444 10.5509 15.2855 9.79114 15.0089C9.02868 14.7313 8.24395 14.2056 7.49586 13.5228C7.18993 13.2435 7.16831 12.7691 7.44756 12.4632C7.72681 12.1573 8.20119 12.1356 8.50712 12.4149C9.16624 13.0165 9.78567 13.4105 10.3043 13.5994C10.8257 13.7892 11.1537 13.7436 11.3499 13.6303C11.5143 13.5354 11.6797 13.342 11.7882 12.9627C11.8981 12.5787 11.9328 12.0529 11.8602 11.4026C11.7152 10.1045 11.1591 8.45607 10.1973 6.79018C9.75492 6.02396 9.27081 5.33055 8.77232 4.72886C8.50807 4.40989 8.55242 3.93709 8.87139 3.67284Z" fill="#000000"/>
        <path fill-rule="nonzero" clip-rule="nonzero" d="M14.5 8.20557C14.5 7.91581 14.286 7.48735 13.5466 7.02507C13.1954 6.80549 13.0887 6.34276 13.3083 5.99154C13.5279 5.64032 13.9906 5.53361 14.3418 5.75319C15.2483 6.31993 16 7.14407 16 8.20557C16 9.27009 15.2442 10.0958 14.3337 10.663C13.9821 10.882 13.5195 10.7746 13.3005 10.423C13.0815 10.0714 13.189 9.60887 13.5405 9.38985C14.2846 8.92635 14.5 8.4962 14.5 8.20557ZM11.3626 11.0378C11.432 11.4462 11.1572 11.8335 10.7488 11.9029C9.89219 12.0484 8.96547 12.1274 8 12.1274C5.91954 12.1274 4.00018 11.76 2.57286 11.1355C1.86032 10.8238 1.23659 10.4332 0.780529 9.9615C0.320977 9.48616 0 8.89166 0 8.20557C0 7.37549 0.466082 6.68599 1.08548 6.16636C1.70712 5.64485 2.55471 5.22808 3.52013 4.92164C3.91494 4.79633 4.33657 5.01479 4.46189 5.40959C4.5872 5.80439 4.36874 6.22603 3.97394 6.35135C3.12334 6.62134 2.4724 6.96078 2.04954 7.31553C1.62442 7.67217 1.5 7.97899 1.5 8.20557C1.5 8.39536 1.58476 8.6353 1.85895 8.91891C2.13663 9.20613 2.57464 9.49905 3.17409 9.76131C4.37076 10.2848 6.07639 10.6274 8 10.6274C8.88475 10.6274 9.72732 10.5549 10.4976 10.424C10.906 10.3547 11.2933 10.6295 11.3626 11.0378Z" fill="#000000"/>
        <path fill-rule="nonzero" clip-rule="nonzero" d="M4.87192 13.6303C5.12286 13.7752 5.6009 13.8041 6.37095 13.3949C6.73673 13.2005 7.19082 13.3395 7.38519 13.7052C7.57957 14.071 7.44062 14.5251 7.07484 14.7195C6.13079 15.2211 5.04121 15.4601 4.12192 14.9293C3.20003 14.3971 2.86282 13.3296 2.82687 12.2575C2.81299 11.8435 3.13733 11.4967 3.55131 11.4828C3.96529 11.4689 4.31215 11.7932 4.32603 12.2072C4.35541 13.0834 4.62023 13.485 4.87192 13.6303ZM3.98778 9.49712C3.59944 9.35301 3.40145 8.92138 3.54556 8.53304C3.84786 7.71839 4.24274 6.8763 4.72548 6.04018C5.76571 4.23845 7.04361 2.75996 8.29806 1.83609C8.92431 1.37487 9.57441 1.02999 10.211 0.870901C10.8524 0.71059 11.5278 0.729863 12.1219 1.07291C12.8408 1.48795 13.2049 2.23634 13.3452 3.03257C13.486 3.83168 13.4232 4.77409 13.2058 5.7634C13.1169 6.16796 12.7169 6.42388 12.3124 6.33501C11.9078 6.24613 11.6519 5.84612 11.7408 5.44155C11.9322 4.56992 11.9637 3.83647 11.868 3.29288C11.7717 2.7464 11.5681 2.48524 11.3719 2.37195C11.2076 2.27705 10.9574 2.23049 10.5747 2.32614C10.1871 2.42301 9.71442 2.65588 9.18757 3.04388C8.13584 3.81846 6.98632 5.12428 6.02452 6.79018C5.58214 7.55639 5.22369 8.32235 4.95185 9.0549C4.80774 9.44323 4.37611 9.64122 3.98778 9.49712Z" fill="#000000"/>
        <path d="M9.45925 8.06618C9.45925 8.81694 8.85063 9.42556 8.09987 9.42556C7.34911 9.42556 6.7405 8.81694 6.7405 8.06618C6.7405 7.31542 7.34911 6.70681 8.09987 6.70681C8.85063 6.70681 9.45925 7.31542 9.45925 8.06618Z" fill="#000000"/>

    </g>


    <g id="js">
        <path fill-rule="nonzero" clip-rule="nonzero" d="M7.58638 0.102166C7.8199 -0.0340553 8.10867 -0.0340553 8.34219 0.102166L14.5565 3.72717C14.7869 3.86157 14.9286 4.10825 14.9286 4.375V11.625C14.9286 11.8918 14.7869 12.1384 14.5565 12.2728L8.34219 15.8978C8.10867 16.0341 7.8199 16.0341 7.58638 15.8978L6.03281 14.9916C5.67502 14.7829 5.55417 14.3236 5.76288 13.9658C5.97159 13.6081 6.43083 13.4872 6.78862 13.6959L7.96429 14.3817L13.4286 11.1942V4.80578L7.96429 1.61828L2.5 4.80578V11.1942L3.6168 11.8457C3.96098 11.9561 4.38611 11.9831 4.68576 11.8507C4.82477 11.7893 4.95031 11.6893 5.04968 11.5107C5.15426 11.3227 5.25 11.0098 5.25 10.5V5.25C5.25 4.83579 5.58579 4.5 6 4.5C6.41421 4.5 6.75 4.83579 6.75 5.25V10.5C6.75 11.1902 6.62104 11.7716 6.36047 12.2399C6.09471 12.7176 5.71466 13.036 5.29192 13.2228C4.48562 13.579 3.59523 13.433 3.04999 13.2371C3.00686 13.2216 2.96525 13.2022 2.92567 13.1791L1.3721 12.2728C1.14168 12.1384 1 11.8918 1 11.625V4.375C1 4.10825 1.14168 3.86157 1.3721 3.72717L7.58638 0.102166ZM8.24655 5.28323C8.64339 4.81081 9.26318 4.5 10.1042 4.5C10.8847 4.5 11.4792 4.76756 11.8815 5.19314C12.166 5.49417 12.1527 5.96885 11.8516 6.25338C11.5506 6.53792 11.0759 6.52455 10.7914 6.22352C10.7038 6.13087 10.5202 6 10.1042 6C9.66182 6 9.47952 6.14753 9.39511 6.24802C9.28615 6.37774 9.25 6.54184 9.25 6.625C9.25 6.70816 9.28615 6.87226 9.39511 7.00198C9.47952 7.10247 9.66182 7.25 10.1042 7.25C10.1782 7.25 10.2497 7.26073 10.3173 7.28072C10.9368 7.37001 11.4089 7.64784 11.7326 8.03323C12.1049 8.47643 12.2292 8.99983 12.2292 9.375C12.2292 9.75017 12.1049 10.2736 11.7326 10.7168C11.3358 11.1892 10.716 11.5 9.87501 11.5C9.0945 11.5 8.49996 11.2324 8.09768 10.8069C7.81315 10.5058 7.82652 10.0311 8.12755 9.74662C8.42857 9.46208 8.90325 9.47546 9.18779 9.77648C9.27536 9.86913 9.459 10 9.87501 10C10.3174 10 10.4997 9.85247 10.5841 9.75198C10.693 9.62226 10.7292 9.45816 10.7292 9.375C10.7292 9.29184 10.693 9.12774 10.5841 8.99802C10.4997 8.89753 10.3174 8.75 9.87501 8.75C9.80097 8.75 9.72943 8.73927 9.66188 8.71928C9.04237 8.62999 8.57028 8.35216 8.24655 7.96677C7.87427 7.52357 7.75 7.00017 7.75 6.625C7.75 6.24983 7.87427 5.72643 8.24655 5.28323Z" fill="#000000"/>
    </g>

    <g id="ts">
        <path fill-rule="nonzero" clip-rule="nonzero" d="M0 1.75C0 0.783501 0.783502 0 1.75 0H14.25C15.2165 0 16 0.783502 16 1.75V3.75C16 4.16421 15.6642 4.5 15.25 4.5C14.8358 4.5 14.5 4.16421 14.5 3.75V1.75C14.5 1.61193 14.3881 1.5 14.25 1.5H1.75C1.61193 1.5 1.5 1.61193 1.5 1.75V14.25C1.5 14.3881 1.61193 14.5 1.75 14.5H15.25C15.6642 14.5 16 14.8358 16 15.25C16 15.6642 15.6642 16 15.25 16H1.75C0.783501 16 0 15.2165 0 14.25V1.75ZM4.75 6.5C4.75 6.08579 5.08579 5.75 5.5 5.75H9.25C9.66421 5.75 10 6.08579 10 6.5C10 6.91421 9.66421 7.25 9.25 7.25H8.25V12.5C8.25 12.9142 7.91421 13.25 7.5 13.25C7.08579 13.25 6.75 12.9142 6.75 12.5V7.25H5.5C5.08579 7.25 4.75 6.91421 4.75 6.5ZM11.2757 6.58011C11.6944 6.08164 12.3507 5.75 13.25 5.75C14.0849 5.75 14.7148 6.03567 15.1394 6.48481C15.4239 6.78583 15.4105 7.26052 15.1095 7.54505C14.8085 7.82958 14.3338 7.81621 14.0493 7.51519C13.9394 7.39898 13.7204 7.25 13.25 7.25C12.7493 7.25 12.5306 7.41836 12.4243 7.54489C12.2934 7.70065 12.25 7.896 12.25 8C12.25 8.104 12.2934 8.29935 12.4243 8.45511C12.5306 8.58164 12.7493 8.75 13.25 8.75C13.3257 8.75 13.3988 8.76121 13.4676 8.78207C14.1307 8.87646 14.6319 9.17251 14.9743 9.58011C15.3684 10.0493 15.5 10.604 15.5 11C15.5 11.396 15.3684 11.9507 14.9743 12.4199C14.5556 12.9184 13.8993 13.25 13 13.25C12.1651 13.25 11.5352 12.9643 11.1106 12.5152C10.8261 12.2142 10.8395 11.7395 11.1405 11.4549C11.4415 11.1704 11.9162 11.1838 12.2007 11.4848C12.3106 11.601 12.5296 11.75 13 11.75C13.5007 11.75 13.7194 11.5816 13.8257 11.4551C13.9566 11.2993 14 11.104 14 11C14 10.896 13.9566 10.7007 13.8257 10.5449C13.7194 10.4184 13.5007 10.25 13 10.25C12.9243 10.25 12.8512 10.2388 12.7824 10.2179C12.1193 10.1235 11.6181 9.82749 11.2757 9.41989C10.8816 8.95065 10.75 8.396 10.75 8C10.75 7.604 10.8816 7.04935 11.2757 6.58011Z" fill="#000000"/>
    </g>

    <g id="violin">
        <path fill-rule="evenodd" clip-rule="evenodd" d="M19.4506 1.22841C20.7282 0.863369 22 1.8227 22 3.15145V16C22 18.2091 20.2091 20 18 20C15.7909 20 14 18.2091 14 16C14 13.7909 15.7909 12 18 12C18.7286 12 19.4117 12.1948 20 12.5351V7.07142L10 9.92857V19C10 21.2091 8.20914 23 6 23C3.79086 23 2 21.2091 2 19C2 16.7909 3.79086 15 6 15C6.72857 15 7.41165 15.1948 8 15.5351V6.0086C8 5.11564 8.59196 4.33086 9.45056 4.08555L19.4506 1.22841ZM18.7669 3.36991C19.3815 3.18555 20 3.64573 20 4.28734C20 4.71033 19.7225 5.08323 19.3174 5.20477L11.2331 7.63008C10.6185 7.81444 10 7.35426 10 6.71265C10 6.28966 10.2775 5.91676 10.6826 5.79522L18.7669 3.36991ZM16.0167 16C16.0167 17.0953 16.9047 17.9833 18 17.9833C19.0954 17.9833 19.9833 17.0953 19.9833 16C19.9833 14.9046 19.0954 14.0167 18 14.0167C16.9047 14.0167 16.0167 14.9046 16.0167 16ZM4.0167 19C4.0167 20.0953 4.90465 20.9833 6 20.9833C7.09535 20.9833 7.9833 20.0953 7.9833 19C7.9833 17.9046 7.09535 17.0167 6 17.0167C4.90465 17.0167 4.0167 17.9046 4.0167 19Z" fill="#0F0F0F"/>
    </g>

    <!--social-->
    <g id="instagram">
        <title>instagram [#167]</title>
        <desc>Created with Sketch.</desc>
        <defs>

        </defs>
        <g id="Page-1" stroke="none" stroke-width="1" fill="none" fill-rule="evenodd">
            <g id="Dribbble-Light-Preview" transform="translate(-337.500000, -7434.500000)" fill="#000000">
                <g id="icons"  transform="translate(56.000000, 160.000000)">
                    <path d="M289.869652,7279.12273 C288.241769,7279.19618 286.830805,7279.5942 285.691486,7280.72871 C284.548187,7281.86918 284.155147,7283.28558 284.081514,7284.89653 C284.035742,7285.90201 283.768077,7293.49818 284.544207,7295.49028 C285.067597,7296.83422 286.098457,7297.86749 287.454694,7298.39256 C288.087538,7298.63872 288.809936,7298.80547 289.869652,7298.85411 C298.730467,7299.25511 302.015089,7299.03674 303.400182,7295.49028 C303.645956,7294.859 303.815113,7294.1374 303.86188,7293.08031 C304.26686,7284.19677 303.796207,7282.27117 302.251908,7280.72871 C301.027016,7279.50685 299.5862,7278.67508 289.869652,7279.12273 M289.951245,7297.06748 C288.981083,7297.0238 288.454707,7296.86201 288.103459,7296.72603 C287.219865,7296.3826 286.556174,7295.72155 286.214876,7294.84312 C285.623823,7293.32944 285.819846,7286.14023 285.872583,7284.97693 C285.924325,7283.83745 286.155174,7282.79624 286.959165,7281.99226 C287.954203,7280.99968 289.239792,7280.51332 297.993144,7280.90837 C299.135448,7280.95998 300.179243,7281.19026 300.985224,7281.99226 C301.980262,7282.98483 302.473801,7284.28014 302.071806,7292.99991 C302.028024,7293.96767 301.865833,7294.49274 301.729513,7294.84312 C300.829003,7297.15085 298.757333,7297.47145 289.951245,7297.06748 M298.089663,7283.68956 C298.089663,7284.34665 298.623998,7284.88065 299.283709,7284.88065 C299.943419,7284.88065 300.47875,7284.34665 300.47875,7283.68956 C300.47875,7283.03248 299.943419,7282.49847 299.283709,7282.49847 C298.623998,7282.49847 298.089663,7283.03248 298.089663,7283.68956 M288.862673,7288.98792 C288.862673,7291.80286 291.150266,7294.08479 293.972194,7294.08479 C296.794123,7294.08479 299.081716,7291.80286 299.081716,7288.98792 C299.081716,7286.17298 296.794123,7283.89205 293.972194,7283.89205 C291.150266,7283.89205 288.862673,7286.17298 288.862673,7288.98792 M290.655732,7288.98792 C290.655732,7287.16159 292.140329,7285.67967 293.972194,7285.67967 C295.80406,7285.67967 297.288657,7287.16159 297.288657,7288.98792 C297.288657,7290.81525 295.80406,7292.29716 293.972194,7292.29716 C292.140329,7292.29716 290.655732,7290.81525 290.655732,7288.98792" id="instagram-[#167]">

                    </path>
                </g>
            </g>
        </g>
    </g>

    <g id="telegram">
        <path fill-rule="evenodd" clip-rule="evenodd" d="M23.1117 4.49449C23.4296 2.94472 21.9074 1.65683 20.4317 2.227L2.3425 9.21601C0.694517 9.85273 0.621087 12.1572 2.22518 12.8975L6.1645 14.7157L8.03849 21.2746C8.13583 21.6153 8.40618 21.8791 8.74917 21.968C9.09216 22.0568 9.45658 21.9576 9.70712 21.707L12.5938 18.8203L16.6375 21.8531C17.8113 22.7334 19.5019 22.0922 19.7967 20.6549L23.1117 4.49449ZM3.0633 11.0816L21.1525 4.0926L17.8375 20.2531L13.1 16.6999C12.7019 16.4013 12.1448 16.4409 11.7929 16.7928L10.5565 18.0292L10.928 15.9861L18.2071 8.70703C18.5614 8.35278 18.5988 7.79106 18.2947 7.39293C17.9906 6.99479 17.4389 6.88312 17.0039 7.13168L6.95124 12.876L3.0633 11.0816ZM8.17695 14.4791L8.78333 16.6015L9.01614 15.321C9.05253 15.1209 9.14908 14.9366 9.29291 14.7928L11.5128 12.573L8.17695 14.4791Z" fill="#0F0F0F" transform="translate(-1, 2.5)"/>
    </g>

    <g id="vk">
        <path fill-rule="evenodd" clip-rule="evenodd" d="M23.405 16.865C22.8611 15.7695 22.1444 14.7688 21.2825 13.9013C20.9892 13.5603 20.6453 13.2238 20.3768 12.9612L20.3393 12.9245C20.2008 12.7889 20.0864 12.6764 19.9928 12.5795C21.1713 10.9407 22.18 9.18595 23.003 7.34222L23.0362 7.26783L23.0595 7.18976C23.1676 6.82687 23.2922 6.1368 22.8515 5.51317C22.396 4.86859 21.6666 4.75234 21.1782 4.75234H18.9311C18.4627 4.73087 17.9988 4.85751 17.6058 5.11498C17.2098 5.37439 16.9069 5.75278 16.7402 6.1951C16.2563 7.34779 15.6508 8.4442 14.9347 9.46598V6.83269C14.9347 6.4923 14.9027 5.92289 14.5382 5.44229C14.1018 4.86685 13.4707 4.75234 13.0326 4.75234H9.46708C9.00771 4.74172 8.56094 4.90597 8.2176 5.21259C7.866 5.52659 7.65052 5.96521 7.61687 6.43543L7.61369 6.47997V6.52463C7.61369 7.01011 7.80606 7.36822 7.95975 7.59344C8.02856 7.69427 8.10216 7.78606 8.14865 7.84403L8.15938 7.85741C8.20895 7.91923 8.24204 7.96049 8.27525 8.00566C8.3626 8.12448 8.48824 8.30768 8.52379 8.78174V10.2547C7.9091 9.24423 7.26066 7.89957 6.77276 6.46344L6.76527 6.4414L6.75697 6.41965C6.63532 6.10103 6.4402 5.63743 6.04941 5.28266C5.59288 4.86821 5.0529 4.75234 4.56182 4.75234H2.28187C1.78506 4.75234 1.18613 4.86857 0.739237 5.33999C0.299773 5.80358 0.25 6.35907 0.25 6.65442V6.78755L0.278039 6.91769C0.909544 9.84881 2.21076 12.5937 4.07946 14.9377C4.92668 16.2737 6.07468 17.3936 7.43213 18.2075C8.81124 19.0345 10.3671 19.5219 11.9715 19.6297L12.0133 19.6325H12.0553C12.7811 19.6325 13.5378 19.5699 14.1068 19.1907C14.8744 18.6792 14.9347 17.8936 14.9347 17.5021V16.3642C15.1317 16.5234 15.3761 16.7378 15.6753 17.0259C16.037 17.3879 16.325 17.7016 16.572 17.9754L16.7038 18.122L16.7046 18.1228C16.8964 18.3364 17.0852 18.5467 17.2571 18.7195C17.4732 18.9367 17.7396 19.1761 18.0745 19.3529C18.4371 19.5444 18.8177 19.631 19.222 19.631H21.5035C21.9841 19.631 22.6735 19.5173 23.1582 18.9554C23.6864 18.343 23.6461 17.5924 23.48 17.053L23.4501 16.956L23.405 16.865ZM17.6857 16.9706C17.4289 16.6859 17.1192 16.3484 16.7278 15.9571L16.7246 15.9539C15.3685 14.6464 14.7348 14.4186 14.2868 14.4186C14.0485 14.4186 13.7848 14.4454 13.6137 14.6585C13.5329 14.7591 13.4905 14.8805 13.4667 15.007C13.4429 15.1333 13.4347 15.2816 13.4347 15.4505V17.5021C13.4347 17.7569 13.3928 17.8639 13.275 17.9425C13.118 18.0471 12.7825 18.1319 12.0637 18.1325C10.6993 18.0395 9.37641 17.6244 8.20349 16.9211C7.02817 16.2164 6.03709 15.2425 5.31187 14.0797L5.30398 14.0671L5.29464 14.0554C3.55337 11.8881 2.34003 9.34571 1.7503 6.6291C1.7535 6.49814 1.78187 6.42045 1.82784 6.37195C1.87521 6.32198 1.98999 6.25234 2.28187 6.25234H4.56182C4.81544 6.25234 4.9467 6.30751 5.04117 6.39327C5.14827 6.4905 5.24116 6.65561 5.35401 6.95042C5.91362 8.5964 6.67038 10.1357 7.387 11.2675C7.74518 11.8332 8.09769 12.3041 8.41529 12.6368C8.57383 12.803 8.72932 12.9406 8.8777 13.0385C9.02132 13.1332 9.18414 13.2079 9.35158 13.2079C9.43994 13.2079 9.54328 13.1988 9.64279 13.1547C9.74983 13.1074 9.83291 13.0284 9.89158 12.9225C9.99536 12.7353 10.0238 12.458 10.0238 12.0947V8.73099L10.0233 8.7231C9.97146 7.90476 9.72439 7.44443 9.48381 7.11718C9.43108 7.04546 9.37909 6.98068 9.33359 6.92399L9.32113 6.90846C9.27117 6.84616 9.23142 6.79582 9.19876 6.74795C9.13891 6.66024 9.11571 6.59909 9.11381 6.53356C9.12162 6.45578 9.15828 6.38361 9.21675 6.33139C9.27744 6.27719 9.35686 6.24897 9.43816 6.25234H13.0326C13.2387 6.25234 13.3081 6.30262 13.343 6.34868C13.3923 6.4137 13.4347 6.54893 13.4347 6.83269V11.3613C13.4347 11.8992 13.6827 12.2634 14.0428 12.2634C14.4572 12.2634 14.7559 12.012 15.2783 11.4896L15.287 11.4809L15.2948 11.4713C16.4656 10.0436 17.4225 8.45298 18.1347 6.74943L18.1392 6.73666C18.1928 6.58613 18.2941 6.45726 18.4278 6.3697C18.5614 6.28215 18.72 6.24072 18.8794 6.25175L18.8881 6.25234H21.1782C21.4905 6.25234 21.5933 6.33183 21.6265 6.37884C21.6618 6.42885 21.6864 6.53604 21.6264 6.74625C20.8053 8.58266 19.7899 10.3258 18.598 11.9464L18.5905 11.9578C18.4748 12.1348 18.3479 12.3306 18.3295 12.5554C18.3098 12.7968 18.4143 13.0163 18.597 13.2515C18.7302 13.4484 19.0049 13.7173 19.2836 13.9901L19.3099 14.0158C19.6021 14.3018 19.9186 14.6116 20.1727 14.9116L20.1795 14.9195L20.1869 14.9269C20.9444 15.6825 21.5743 16.556 22.052 17.5132C22.1283 17.7738 22.0816 17.907 22.0223 17.9757C21.953 18.0561 21.7976 18.131 21.5035 18.131H19.222C19.0438 18.131 18.9063 18.0959 18.7749 18.0265C18.638 17.9542 18.4972 17.8392 18.3206 17.6617C18.1784 17.5187 18.023 17.3457 17.8334 17.1348C17.7864 17.0825 17.7373 17.0277 17.6857 16.9706Z" fill="#000000" transform="translate(0, 3)"/>
    </g>

    <g id="logo">
        <g id="SVGRepo_bgCarrier" stroke-width="0"/>

        <g id="SVGRepo_tracerCarrier" stroke-linecap="round" stroke-linejoin="round"/>

        <g id="SVGRepo_iconCarrier"> <path d="M12 17C12 17.8284 11.3284 18.5 10.5 18.5C9.67157 18.5 9 17.8284 9 17C9 16.1716 9.67157 15.5 10.5 15.5C11.3284 15.5 12 16.1716 12 17ZM12 17V10.5C12 12.1569 13.8954 13.5 15 13.5" stroke="#000000" stroke-width="1.5" stroke-linecap="round" stroke-linejoin="round"/> <path d="M19.5617 7C19.7904 5.69523 18.7863 4.5 17.4617 4.5H6.53788C5.21323 4.5 4.20922 5.69523 4.43784 7" stroke="#000000" stroke-width="1.5"/> <path d="M17.4999 4.5C17.5283 4.24092 17.5425 4.11135 17.5427 4.00435C17.545 2.98072 16.7739 2.12064 15.7561 2.01142C15.6497 2 15.5194 2 15.2588 2H8.74099C8.48035 2 8.35002 2 8.24362 2.01142C7.22584 2.12064 6.45481 2.98072 6.45704 4.00434C6.45727 4.11135 6.47146 4.2409 6.49983 4.5" stroke="#000000" stroke-width="1.5"/> <path d="M21.1935 16.793C20.8437 19.2739 20.6689 20.5143 19.7717 21.2572C18.8745 22 17.5512 22 14.9046 22H9.09536C6.44881 22 5.12553 22 4.22834 21.2572C3.33115 20.5143 3.15626 19.2739 2.80648 16.793L2.38351 13.793C1.93748 10.6294 1.71447 9.04765 2.66232 8.02383C3.61017 7 5.29758 7 8.67239 7H15.3276C18.7024 7 20.3898 7 21.3377 8.02383C22.0865 8.83268 22.1045 9.98979 21.8592 12" stroke="#000000" stroke-width="1.5" stroke-linecap="round"/> </g>
    </g>
    <g id="strelka">
        <path d="M6.80722 4.2806V15H9.19278V4.2806L14.3134 9.08118L16 7.5L8 0L0 7.5L1.6866 9.08118L6.80722 4.2806Z" fill="#262320"/>
    </g>
<!--    hoversocial-->

    <g id="instagramhover">
        <title>instagram [#167]</title>
        <desc>Created with Sketch.</desc>
        <defs>

        </defs>
        <g id="Page-1" stroke="none" stroke-width="1" fill="none" fill-rule="evenodd">
            <g id="Dribbble-Light-Preview" transform="translate(-337.500000, -7434.500000)" fill='#ef4258'>
                <g id="icons"  transform="translate(56.000000, 160.000000)">
                    <path d="M289.869652,7279.12273 C288.241769,7279.19618 286.830805,7279.5942 285.691486,7280.72871 C284.548187,7281.86918 284.155147,7283.28558 284.081514,7284.89653 C284.035742,7285.90201 283.768077,7293.49818 284.544207,7295.49028 C285.067597,7296.83422 286.098457,7297.86749 287.454694,7298.39256 C288.087538,7298.63872 288.809936,7298.80547 289.869652,7298.85411 C298.730467,7299.25511 302.015089,7299.03674 303.400182,7295.49028 C303.645956,7294.859 303.815113,7294.1374 303.86188,7293.08031 C304.26686,7284.19677 303.796207,7282.27117 302.251908,7280.72871 C301.027016,7279.50685 299.5862,7278.67508 289.869652,7279.12273 M289.951245,7297.06748 C288.981083,7297.0238 288.454707,7296.86201 288.103459,7296.72603 C287.219865,7296.3826 286.556174,7295.72155 286.214876,7294.84312 C285.623823,7293.32944 285.819846,7286.14023 285.872583,7284.97693 C285.924325,7283.83745 286.155174,7282.79624 286.959165,7281.99226 C287.954203,7280.99968 289.239792,7280.51332 297.993144,7280.90837 C299.135448,7280.95998 300.179243,7281.19026 300.985224,7281.99226 C301.980262,7282.98483 302.473801,7284.28014 302.071806,7292.99991 C302.028024,7293.96767 301.865833,7294.49274 301.729513,7294.84312 C300.829003,7297.15085 298.757333,7297.47145 289.951245,7297.06748 M298.089663,7283.68956 C298.089663,7284.34665 298.623998,7284.88065 299.283709,7284.88065 C299.943419,7284.88065 300.47875,7284.34665 300.47875,7283.68956 C300.47875,7283.03248 299.943419,7282.49847 299.283709,7282.49847 C298.623998,7282.49847 298.089663,7283.03248 298.089663,7283.68956 M288.862673,7288.98792 C288.862673,7291.80286 291.150266,7294.08479 293.972194,7294.08479 C296.794123,7294.08479 299.081716,7291.80286 299.081716,7288.98792 C299.081716,7286.17298 296.794123,7283.89205 293.972194,7283.89205 C291.150266,7283.89205 288.862673,7286.17298 288.862673,7288.98792 M290.655732,7288.98792 C290.655732,7287.16159 292.140329,7285.67967 293.972194,7285.67967 C295.80406,7285.67967 297.288657,7287.16159 297.288657,7288.98792 C297.288657,7290.81525 295.80406,7292.29716 293.972194,7292.29716 C292.140329,7292.29716 290.655732,7290.81525 290.655732,7288.98792" id="instagram-[#167]">

                    </path>
                </g>
            </g>
        </g>
    </g>

    <g id="telegramhover">
        <path fill-rule="evenodd" clip-rule="evenodd" d="M23.1117 4.49449C23.4296 2.94472 21.9074 1.65683 20.4317 2.227L2.3425 9.21601C0.694517 9.85273 0.621087 12.1572 2.22518 12.8975L6.1645 14.7157L8.03849 21.2746C8.13583 21.6153 8.40618 21.8791 8.74917 21.968C9.09216 22.0568 9.45658 21.9576 9.70712 21.707L12.5938 18.8203L16.6375 21.8531C17.8113 22.7334 19.5019 22.0922 19.7967 20.6549L23.1117 4.49449ZM3.0633 11.0816L21.1525 4.0926L17.8375 20.2531L13.1 16.6999C12.7019 16.4013 12.1448 16.4409 11.7929 16.7928L10.5565 18.0292L10.928 15.9861L18.2071 8.70703C18.5614 8.35278 18.5988 7.79106 18.2947 7.39293C17.9906 6.99479 17.4389 6.88312 17.0039 7.13168L6.95124 12.876L3.0633 11.0816ZM8.17695 14.4791L8.78333 16.6015L9.01614 15.321C9.05253 15.1209 9.14908 14.9366 9.29291 14.7928L11.5128 12.573L8.17695 14.4791Z" fill='#ef4258' transform="translate(-1, 2.5)"/>
    </g>

    <g id="vkhover">
        <path fill-rule="evenodd" clip-rule="evenodd" d="M23.405 16.865C22.8611 15.7695 22.1444 14.7688 21.2825 13.9013C20.9892 13.5603 20.6453 13.2238 20.3768 12.9612L20.3393 12.9245C20.2008 12.7889 20.0864 12.6764 19.9928 12.5795C21.1713 10.9407 22.18 9.18595 23.003 7.34222L23.0362 7.26783L23.0595 7.18976C23.1676 6.82687 23.2922 6.1368 22.8515 5.51317C22.396 4.86859 21.6666 4.75234 21.1782 4.75234H18.9311C18.4627 4.73087 17.9988 4.85751 17.6058 5.11498C17.2098 5.37439 16.9069 5.75278 16.7402 6.1951C16.2563 7.34779 15.6508 8.4442 14.9347 9.46598V6.83269C14.9347 6.4923 14.9027 5.92289 14.5382 5.44229C14.1018 4.86685 13.4707 4.75234 13.0326 4.75234H9.46708C9.00771 4.74172 8.56094 4.90597 8.2176 5.21259C7.866 5.52659 7.65052 5.96521 7.61687 6.43543L7.61369 6.47997V6.52463C7.61369 7.01011 7.80606 7.36822 7.95975 7.59344C8.02856 7.69427 8.10216 7.78606 8.14865 7.84403L8.15938 7.85741C8.20895 7.91923 8.24204 7.96049 8.27525 8.00566C8.3626 8.12448 8.48824 8.30768 8.52379 8.78174V10.2547C7.9091 9.24423 7.26066 7.89957 6.77276 6.46344L6.76527 6.4414L6.75697 6.41965C6.63532 6.10103 6.4402 5.63743 6.04941 5.28266C5.59288 4.86821 5.0529 4.75234 4.56182 4.75234H2.28187C1.78506 4.75234 1.18613 4.86857 0.739237 5.33999C0.299773 5.80358 0.25 6.35907 0.25 6.65442V6.78755L0.278039 6.91769C0.909544 9.84881 2.21076 12.5937 4.07946 14.9377C4.92668 16.2737 6.07468 17.3936 7.43213 18.2075C8.81124 19.0345 10.3671 19.5219 11.9715 19.6297L12.0133 19.6325H12.0553C12.7811 19.6325 13.5378 19.5699 14.1068 19.1907C14.8744 18.6792 14.9347 17.8936 14.9347 17.5021V16.3642C15.1317 16.5234 15.3761 16.7378 15.6753 17.0259C16.037 17.3879 16.325 17.7016 16.572 17.9754L16.7038 18.122L16.7046 18.1228C16.8964 18.3364 17.0852 18.5467 17.2571 18.7195C17.4732 18.9367 17.7396 19.1761 18.0745 19.3529C18.4371 19.5444 18.8177 19.631 19.222 19.631H21.5035C21.9841 19.631 22.6735 19.5173 23.1582 18.9554C23.6864 18.343 23.6461 17.5924 23.48 17.053L23.4501 16.956L23.405 16.865ZM17.6857 16.9706C17.4289 16.6859 17.1192 16.3484 16.7278 15.9571L16.7246 15.9539C15.3685 14.6464 14.7348 14.4186 14.2868 14.4186C14.0485 14.4186 13.7848 14.4454 13.6137 14.6585C13.5329 14.7591 13.4905 14.8805 13.4667 15.007C13.4429 15.1333 13.4347 15.2816 13.4347 15.4505V17.5021C13.4347 17.7569 13.3928 17.8639 13.275 17.9425C13.118 18.0471 12.7825 18.1319 12.0637 18.1325C10.6993 18.0395 9.37641 17.6244 8.20349 16.9211C7.02817 16.2164 6.03709 15.2425 5.31187 14.0797L5.30398 14.0671L5.29464 14.0554C3.55337 11.8881 2.34003 9.34571 1.7503 6.6291C1.7535 6.49814 1.78187 6.42045 1.82784 6.37195C1.87521 6.32198 1.98999 6.25234 2.28187 6.25234H4.56182C4.81544 6.25234 4.9467 6.30751 5.04117 6.39327C5.14827 6.4905 5.24116 6.65561 5.35401 6.95042C5.91362 8.5964 6.67038 10.1357 7.387 11.2675C7.74518 11.8332 8.09769 12.3041 8.41529 12.6368C8.57383 12.803 8.72932 12.9406 8.8777 13.0385C9.02132 13.1332 9.18414 13.2079 9.35158 13.2079C9.43994 13.2079 9.54328 13.1988 9.64279 13.1547C9.74983 13.1074 9.83291 13.0284 9.89158 12.9225C9.99536 12.7353 10.0238 12.458 10.0238 12.0947V8.73099L10.0233 8.7231C9.97146 7.90476 9.72439 7.44443 9.48381 7.11718C9.43108 7.04546 9.37909 6.98068 9.33359 6.92399L9.32113 6.90846C9.27117 6.84616 9.23142 6.79582 9.19876 6.74795C9.13891 6.66024 9.11571 6.59909 9.11381 6.53356C9.12162 6.45578 9.15828 6.38361 9.21675 6.33139C9.27744 6.27719 9.35686 6.24897 9.43816 6.25234H13.0326C13.2387 6.25234 13.3081 6.30262 13.343 6.34868C13.3923 6.4137 13.4347 6.54893 13.4347 6.83269V11.3613C13.4347 11.8992 13.6827 12.2634 14.0428 12.2634C14.4572 12.2634 14.7559 12.012 15.2783 11.4896L15.287 11.4809L15.2948 11.4713C16.4656 10.0436 17.4225 8.45298 18.1347 6.74943L18.1392 6.73666C18.1928 6.58613 18.2941 6.45726 18.4278 6.3697C18.5614 6.28215 18.72 6.24072 18.8794 6.25175L18.8881 6.25234H21.1782C21.4905 6.25234 21.5933 6.33183 21.6265 6.37884C21.6618 6.42885 21.6864 6.53604 21.6264 6.74625C20.8053 8.58266 19.7899 10.3258 18.598 11.9464L18.5905 11.9578C18.4748 12.1348 18.3479 12.3306 18.3295 12.5554C18.3098 12.7968 18.4143 13.0163 18.597 13.2515C18.7302 13.4484 19.0049 13.7173 19.2836 13.9901L19.3099 14.0158C19.6021 14.3018 19.9186 14.6116 20.1727 14.9116L20.1795 14.9195L20.1869 14.9269C20.9444 15.6825 21.5743 16.556 22.052 17.5132C22.1283 17.7738 22.0816 17.907 22.0223 17.9757C21.953 18.0561 21.7976 18.131 21.5035 18.131H19.222C19.0438 18.131 18.9063 18.0959 18.7749 18.0265C18.638 17.9542 18.4972 17.8392 18.3206 17.6617C18.1784 17.5187 18.023 17.3457 17.8334 17.1348C17.7864 17.0825 17.7373 17.0277 17.6857 16.9706Z" fill='#ef4258' transform="translate(0, 3)"/>
    </g>


</svg>